# Wavefront OBJ exported by MilkShape 3D

mtllib wheelieLID.mtl

v -38.548981 35.450100 56.120293
v 31.149122 35.450100 56.120293
v -44.548981 35.558102 6.263542
v 37.149124 35.558102 6.263542
v -44.548981 32.633274 49.949890
v 31.149122 32.619923 56.114147
v -38.548981 32.741268 0.093168
v 37.149124 32.727917 6.257427
v 31.149122 35.571461 0.099287
v 31.149122 32.741268 0.093168
v 36.982456 35.562183 4.380011
v 36.482456 35.565510 2.838968
v 35.649124 35.568127 1.640350
v 34.482456 35.569965 0.784203
v 32.982456 35.571102 0.270523
v 32.982456 32.740894 0.264389
v 34.482456 32.739788 0.778069
v 35.649124 32.737926 1.634230
v 36.482456 32.735332 2.832817
v 36.982456 32.731991 4.373886
v 37.149124 35.463467 49.956051
v 37.149124 32.633274 49.949890
v 32.982456 35.450481 55.949051
v 34.482456 35.451595 55.435368
v 35.649124 35.453449 54.579212
v 36.482456 35.456051 53.380623
v 36.982456 35.459377 51.839546
v 36.982456 32.629200 51.833420
v 36.482456 32.625858 53.374481
v 35.649124 32.623272 54.573074
v 34.482456 32.621418 55.429234
v 32.982456 32.620296 55.942936
v -44.548981 35.463467 49.956051
v -38.548981 32.619923 56.114147
v -44.382313 35.459377 51.839546
v -43.882313 35.456051 53.380623
v -43.048981 35.453449 54.579212
v -41.882313 35.451595 55.435368
v -40.382313 35.450481 55.949051
v -40.382313 32.620296 55.942936
v -41.882313 32.621418 55.429234
v -43.048981 32.623272 54.573074
v -43.882313 32.625858 53.374481
v -44.382313 32.629200 51.833420
v -38.548981 35.571461 0.099287
v -44.548981 32.727917 6.257427
v -40.382313 35.571102 0.270523
v -41.882313 35.569965 0.784203
v -43.048981 35.568127 1.640350
v -43.882313 35.565510 2.838968
v -44.382313 35.562183 4.380011
v -44.382313 32.731991 4.373886
v -43.882313 32.735332 2.832817
v -43.048981 32.737926 1.634230
v -41.882313 32.739788 0.778069
v -40.382313 32.740894 0.264389
v -41.422840 35.557781 6.409235
v -41.422840 35.463795 49.810329
v -41.301861 35.460819 51.177536
v -41.065243 35.459240 51.906845
v -40.807972 35.458431 52.276867
v -40.447792 35.457859 52.541195
v -39.737949 35.457340 52.784279
v -38.407177 35.457066 52.908581
v 31.007318 35.457066 52.908581
v 32.338093 35.457340 52.784279
v 33.047935 35.457859 52.541195
v 33.408115 35.458431 52.276867
v 33.665386 35.459240 51.906845
v 33.902004 35.460819 51.177536
v 34.022984 35.463795 49.810329
v 34.022984 35.557781 6.409235
v 33.902004 35.560741 5.042013
v 33.665386 35.562336 4.312750
v 33.408115 35.563137 3.942717
v 33.047935 35.563702 3.678387
v 32.338093 35.564236 3.435301
v 31.007318 35.564503 3.311018
v -38.407177 35.564503 3.311018
v -39.737949 35.564236 3.435301
v -40.447792 35.563702 3.678387
v -40.807972 35.563137 3.942717
v -41.065243 35.562336 4.312750
v -41.301861 35.560741 5.042013
v -27.863470 38.348072 14.215507
v -27.863470 38.287868 42.016251
v -27.785976 38.285976 42.892006
v -27.634411 38.284962 43.359150
v -27.469614 38.284435 43.596161
v -27.238899 38.284077 43.765480
v -26.784208 38.283718 43.921204
v -25.931776 38.283573 44.000805
v 18.531916 38.283573 44.000805
v 19.384348 38.283718 43.921204
v 19.839039 38.284077 43.765480
v 20.069754 38.284435 43.596161
v 20.234550 38.284962 43.359150
v 20.386116 38.285976 42.892006
v 20.463610 38.287868 42.016251
v 20.463610 38.348072 14.215507
v 20.386116 38.349995 13.339728
v 20.234550 38.350986 12.872605
v 20.069754 38.351505 12.635565
v 19.839039 38.351879 12.466265
v 19.384348 38.352207 12.310553
v 18.531916 38.352383 12.230926
v -25.931776 38.352383 12.230926
v -26.784208 38.352207 12.310553
v -27.238899 38.351879 12.466265
v -27.469614 38.351505 12.635565
v -27.634411 38.350986 12.872605
v -27.785976 38.349995 13.339728
# 112 vertices

vt 0.008081 0.792038
vt 0.065360 0.097927
vt 0.069708 0.068005
vt 0.077363 0.043523
vt 0.088326 0.024482
vt 0.102597 0.010881
vt 0.120175 0.002720
vt 0.141061 0.000000
vt 0.934640 0.097927
vt 0.948999 0.003057
vt 0.967359 0.012226
vt 0.981640 0.027509
vt 0.991840 0.048904
vt 0.997960 0.076413
vt 1.000000 0.110035
vt 0.926559 0.898687
vt 0.997960 0.923587
vt 0.991840 0.951096
vt 0.981640 0.972491
vt 0.967359 0.987774
vt 0.948999 0.996943
vt 0.926559 1.000000
vt 0.007652 0.822203
vt 0.011752 0.847411
vt 0.020381 0.867664
vt 0.033538 0.882961
vt 0.051225 0.893302
vt 0.073441 0.898687
vt 0.858939 0.000000
vt 0.879825 0.002720
vt 0.897403 0.010881
vt 0.911674 0.024482
vt 0.922637 0.043523
vt 0.930292 0.068005
vt 0.991919 0.792038
vt 0.992348 0.822203
vt 0.988248 0.847411
vt 0.979619 0.867664
vt 0.966462 0.882961
vt 0.948775 0.893302
vt 0.073441 1.000000
vt 0.051001 0.996943
vt 0.032640 0.987774
vt 0.018360 0.972491
vt 0.008160 0.951096
vt 0.002040 0.923587
vt 0.051001 0.003057
vt 0.032640 0.012226
vt 0.018360 0.027509
vt 0.008160 0.048904
vt 0.002040 0.076413
vt 0.000000 0.110035
vt 0.141489 1.000000
vt 0.869299 1.000000
vt 0.869299 0.000000
vt 0.195854 0.000000
vt 0.195854 1.000000
vt 0.804146 1.000000
vt 0.804146 0.000000
vt 3.286296 0.000006
vt 3.928868 0.000007
vt 3.928868 1.000007
vt 3.286296 1.000006
vt 2.643725 0.000005
vt 2.643725 1.000005
vt 2.001154 0.000003
vt 2.001154 1.000003
vt 1.358583 0.000002
vt 1.358583 1.000002
vt 0.716012 0.000001
vt 0.716012 1.000001
vt 2.127638 0.000002
vt 2.531158 0.000003
vt 2.531158 1.000003
vt 2.127638 1.000002
vt 1.724117 0.000002
vt 1.724117 1.000002
vt 1.320597 0.000001
vt 1.320597 1.000001
vt 0.917076 0.000001
vt 0.917076 1.000001
vt 0.513555 0.000000
vt 0.513555 1.000000
vt -1.353150 0.999999
vt -1.784609 0.999999
vt -1.784609 -0.000001
vt -1.353150 -0.000001
vt -0.921691 0.999999
vt -0.921690 -0.000001
vt -0.490232 0.999999
vt -0.490231 -0.000001
vt -0.058772 1.000000
vt -0.058772 0.000000
vt 0.372687 1.000000
vt 0.372687 0.000000
vt 2.268714 0.000002
vt 2.683286 0.000003
vt 2.683286 1.000003
vt 2.268714 1.000003
vt 1.854142 0.000002
vt 1.854142 1.000002
vt 1.439570 0.000001
vt 1.439570 1.000001
vt 1.024998 0.000001
vt 1.024998 1.000001
vt 0.610426 0.000000
vt 0.610426 1.000000
# 107 texture coordinates

vn -0.053777 0.998553 -0.000954
vn -0.150267 0.988624 0.006431
vn -0.111887 0.993517 0.020132
vn -0.097053 0.994294 0.044282
vn -0.079282 0.994250 0.071975
vn -0.058216 0.992918 0.103559
vn -0.033452 0.989710 0.139125
vn -0.004211 0.997366 0.072407
vn 0.006321 0.975237 0.221071
vn 0.024321 0.988114 0.151789
vn 0.050396 0.992085 0.115013
vn 0.072662 0.993976 0.082051
vn 0.091492 0.994389 0.053108
vn 0.107269 0.993841 0.027797
vn 0.053800 0.998538 0.005284
vn 0.150339 0.988632 -0.002144
vn 0.111921 0.993591 -0.015828
vn 0.097059 0.994476 -0.039966
vn 0.079312 0.994551 -0.067654
vn 0.058219 0.993357 -0.099258
vn 0.033451 0.990303 -0.134837
vn 0.004208 0.997669 -0.068102
vn -0.107269 0.993952 -0.023493
vn -0.091497 0.994610 -0.048782
vn -0.072666 0.994323 -0.077723
vn -0.050398 0.992575 -0.110698
vn -0.024320 0.988755 -0.147553
vn -0.006316 0.976168 -0.216923
vn 0.020798 -0.895587 0.444400
vn -0.041620 -0.449542 0.892289
vn -0.142055 -0.558872 0.816996
vn -0.346247 -0.560265 0.752473
vn -0.560577 -0.560689 0.609411
vn -0.724040 -0.559270 0.403711
vn -0.807044 -0.557297 0.195193
vn -0.405415 -0.913994 0.015923
vn -0.893385 -0.447470 -0.040418
vn -0.819553 -0.556576 -0.136218
vn -0.760373 -0.557673 -0.332917
vn -0.624745 -0.558187 -0.546004
vn -0.420999 -0.557084 -0.715833
vn -0.206393 -0.555353 -0.805596
vn -0.020798 -0.893652 -0.448279
vn 0.041622 -0.445666 -0.894231
vn 0.142051 -0.555323 -0.819413
vn 0.346242 -0.556999 -0.754897
vn 0.560576 -0.558044 -0.611834
vn 0.724043 -0.557514 -0.406127
vn 0.807044 -0.556446 -0.197607
vn 0.405410 -0.913919 -0.019881
vn 0.206397 -0.558837 0.803182
vn 0.421005 -0.560180 0.713410
vn 0.624741 -0.560549 0.543584
vn 0.760373 -0.559112 0.330495
vn 0.819548 -0.557168 0.133808
vn 0.893379 -0.447653 0.038480
vn -0.037221 0.598683 0.800121
vn 0.025800 0.831125 0.555487
vn 0.798941 0.600295 0.036581
vn 0.553786 0.832351 -0.022651
vn 0.037222 0.602144 -0.797519
vn -0.025799 0.833525 -0.551879
vn -0.798941 0.600449 -0.033978
vn -0.553788 0.832243 0.026261
vn 0.695727 0.709351 -0.113076
vn 0.645000 0.711104 -0.279833
vn 0.529686 0.712389 -0.460364
vn 0.357079 0.712027 -0.604576
vn 0.175192 0.710788 -0.681240
vn 0.120576 0.707804 0.696042
vn 0.293671 0.709331 0.640786
vn 0.475282 0.710266 0.519259
vn 0.614179 0.709752 0.345017
vn 0.685110 0.708740 0.168264
vn -0.175192 0.707830 0.684313
vn -0.357079 0.709402 0.607654
vn -0.529688 0.710387 0.463445
vn -0.644996 0.709887 0.282915
vn -0.695727 0.708853 0.116149
vn -0.120579 0.710813 -0.692968
vn -0.293665 0.712099 -0.637711
vn -0.475287 0.712509 -0.516172
vn -0.614183 0.711239 -0.341934
vn -0.685107 0.709464 -0.165192
vn -0.098694 0.995087 0.007886
vn -0.100294 0.994958 -0.000710
vn -0.089404 0.995717 0.023535
vn -0.076253 0.996090 0.044614
vn -0.060560 0.995795 0.068743
vn -0.042002 0.994474 0.096210
vn -0.020279 0.991707 0.126913
vn -0.004219 0.988893 0.148569
vn 0.008439 0.989682 0.143036
vn 0.027881 0.992819 0.116332
vn 0.048529 0.995055 0.086666
vn 0.066078 0.995987 0.060354
vn 0.080905 0.996025 0.037267
vn 0.093250 0.995495 0.017141
vn 0.100295 0.994945 0.005024
vn 0.098696 0.995111 -0.003569
vn 0.089401 0.995810 -0.019217
vn 0.076264 0.996274 -0.040281
vn 0.060561 0.996083 -0.064430
vn 0.041999 0.994882 -0.091904
vn 0.020279 0.992247 -0.122618
vn 0.004219 0.989528 -0.144282
vn -0.008436 0.990292 -0.138750
vn -0.027883 0.993314 -0.112025
vn -0.048525 0.995421 -0.082359
vn -0.066083 0.996240 -0.056030
vn -0.080911 0.996177 -0.032946
vn -0.093255 0.995560 -0.012819
# 112 normals

g bibnlid
usemtl binlidd
s 1
f 85/1/1 86/2/2 87/3/3
f 85/1/1 87/3/3 88/4/4
f 85/1/1 88/4/4 89/5/5
f 85/1/1 89/5/5 90/6/6
f 85/1/1 90/6/6 91/7/7
f 85/1/1 91/7/7 92/8/8
f 92/8/8 93/9/9 94/10/10
f 92/8/8 94/10/10 95/11/11
f 92/8/8 95/11/11 96/12/12
f 92/8/8 96/12/12 97/13/13
f 92/8/8 97/13/13 98/14/14
f 92/8/8 98/14/14 99/15/15
f 99/15/15 100/16/16 101/17/17
f 99/15/15 101/17/17 102/18/18
f 99/15/15 102/18/18 103/19/19
f 99/15/15 103/19/19 104/20/20
f 99/15/15 104/20/20 105/21/21
f 99/15/15 105/21/21 106/22/22
f 92/8/8 99/15/15 106/22/22
f 85/1/1 92/8/8 106/22/22
f 112/23/23 85/1/1 106/22/22
f 111/24/24 112/23/23 106/22/22
f 110/25/25 111/24/24 106/22/22
f 109/26/26 110/25/25 106/22/22
f 108/27/27 109/26/26 106/22/22
f 107/28/28 108/27/27 106/22/22
f 6/8/29 34/29/30 40/30/31
f 6/8/29 40/30/31 41/31/32
f 6/8/29 41/31/32 42/32/33
f 6/8/29 42/32/33 43/33/34
f 6/8/29 43/33/34 44/34/35
f 6/8/29 44/34/35 5/9/36
f 5/9/36 46/35/37 52/36/38
f 5/9/36 52/36/38 53/37/39
f 5/9/36 53/37/39 54/38/40
f 5/9/36 54/38/40 55/39/41
f 5/9/36 55/39/41 56/40/42
f 5/9/36 56/40/42 7/16/43
f 7/16/43 10/41/44 16/42/45
f 7/16/43 16/42/45 17/43/46
f 7/16/43 17/43/46 18/44/47
f 7/16/43 18/44/47 19/45/48
f 7/16/43 19/45/48 20/46/49
f 7/16/43 20/46/49 8/1/50
f 5/9/36 7/16/43 8/1/50
f 6/8/29 5/9/36 8/1/50
f 32/47/51 6/8/29 8/1/50
f 31/48/52 32/47/51 8/1/50
f 30/49/53 31/48/52 8/1/50
f 29/50/54 30/49/53 8/1/50
f 28/51/55 29/50/54 8/1/50
f 22/52/56 28/51/55 8/1/50
f 1/8/57 34/53/30 6/54/29
f 6/54/29 2/55/58 1/8/57
f 21/56/59 22/57/56 8/58/50
f 8/58/50 4/59/60 21/56/59
f 9/8/61 10/53/44 7/54/43
f 7/54/43 45/55/62 9/8/61
f 3/56/63 46/57/37 5/58/36
f 5/58/36 33/59/64 3/56/63
f 11/60/65 4/61/60 8/62/50
f 8/62/50 20/63/49 11/60/65
f 12/64/66 11/60/65 20/63/49
f 20/63/49 19/65/48 12/64/66
f 13/66/67 12/64/66 19/65/48
f 19/65/48 18/67/47 13/66/67
f 14/68/68 13/66/67 18/67/47
f 18/67/47 17/69/46 14/68/68
f 15/70/69 14/68/68 17/69/46
f 17/69/46 16/71/45 15/70/69
f 9/8/61 15/70/69 16/71/45
f 16/71/45 10/53/44 9/8/61
f 23/72/70 2/73/58 6/74/29
f 6/74/29 32/75/51 23/72/70
f 24/76/71 23/72/70 32/75/51
f 32/75/51 31/77/52 24/76/71
f 25/78/72 24/76/71 31/77/52
f 31/77/52 30/79/53 25/78/72
f 26/80/73 25/78/72 30/79/53
f 30/79/53 29/81/54 26/80/73
f 27/82/74 26/80/73 29/81/54
f 29/81/54 28/83/55 27/82/74
f 21/56/59 27/82/74 28/83/55
f 28/83/55 22/57/56 21/56/59
f 40/84/31 34/85/30 1/86/57
f 1/86/57 39/87/75 40/84/31
f 41/88/32 40/84/31 39/87/75
f 39/87/75 38/89/76 41/88/32
f 42/90/33 41/88/32 38/89/76
f 38/89/76 37/91/77 42/90/33
f 43/92/34 42/90/33 37/91/77
f 37/91/77 36/93/78 43/92/34
f 44/94/35 43/92/34 36/93/78
f 36/93/78 35/95/79 44/94/35
f 5/58/36 44/94/35 35/95/79
f 35/95/79 33/59/64 5/58/36
f 47/96/80 45/97/62 7/98/43
f 7/98/43 56/99/42 47/96/80
f 48/100/81 47/96/80 56/99/42
f 56/99/42 55/101/41 48/100/81
f 49/102/82 48/100/81 55/101/41
f 55/101/41 54/103/40 49/102/82
f 50/104/83 49/102/82 54/103/40
f 54/103/40 53/105/39 50/104/83
f 51/106/84 50/104/83 53/105/39
f 53/105/39 52/107/38 51/106/84
f 3/56/63 51/106/84 52/107/38
f 52/107/38 46/57/37 3/56/63
f 3/56/63 33/59/64 58/2/85
f 58/2/85 57/1/86 3/56/63
f 33/59/64 35/95/79 59/3/87
f 59/3/87 58/2/85 33/59/64
f 35/95/79 36/93/78 60/4/88
f 60/4/88 59/3/87 35/95/79
f 36/93/78 37/91/77 61/5/89
f 61/5/89 60/4/88 36/93/78
f 37/91/77 38/89/76 62/6/90
f 62/6/90 61/5/89 37/91/77
f 38/89/76 39/87/75 63/7/91
f 63/7/91 62/6/90 38/89/76
f 39/87/75 1/86/57 64/8/92
f 64/8/92 63/7/91 39/87/75
f 1/8/57 2/55/58 65/9/93
f 65/9/93 64/8/92 1/8/57
f 2/73/58 23/72/70 66/10/94
f 66/10/94 65/9/93 2/73/58
f 23/72/70 24/76/71 67/11/95
f 67/11/95 66/10/94 23/72/70
f 24/76/71 25/78/72 68/12/96
f 68/12/96 67/11/95 24/76/71
f 25/78/72 26/80/73 69/13/97
f 69/13/97 68/12/96 25/78/72
f 26/80/73 27/82/74 70/14/98
f 70/14/98 69/13/97 26/80/73
f 27/82/74 21/56/59 71/15/99
f 71/15/99 70/14/98 27/82/74
f 21/56/59 4/59/60 72/16/100
f 72/16/100 71/15/99 21/56/59
f 4/61/60 11/60/65 73/17/101
f 73/17/101 72/16/100 4/61/60
f 11/60/65 12/64/66 74/18/102
f 74/18/102 73/17/101 11/60/65
f 12/64/66 13/66/67 75/19/103
f 75/19/103 74/18/102 12/64/66
f 13/66/67 14/68/68 76/20/104
f 76/20/104 75/19/103 13/66/67
f 14/68/68 15/70/69 77/21/105
f 77/21/105 76/20/104 14/68/68
f 15/70/69 9/8/61 78/22/106
f 78/22/106 77/21/105 15/70/69
f 9/8/61 45/55/62 79/28/107
f 79/28/107 78/22/106 9/8/61
f 45/97/62 47/96/80 80/27/108
f 80/27/108 79/28/107 45/97/62
f 47/96/80 48/100/81 81/26/109
f 81/26/109 80/27/108 47/96/80
f 48/100/81 49/102/82 82/25/110
f 82/25/110 81/26/109 48/100/81
f 49/102/82 50/104/83 83/24/111
f 83/24/111 82/25/110 49/102/82
f 50/104/83 51/106/84 84/23/112
f 84/23/112 83/24/111 50/104/83
f 51/106/84 3/56/63 57/1/86
f 57/1/86 84/23/112 51/106/84
f 57/1/86 58/2/85 86/2/2
f 86/2/2 85/1/1 57/1/86
f 58/2/85 59/3/87 87/3/3
f 87/3/3 86/2/2 58/2/85
f 59/3/87 60/4/88 88/4/4
f 88/4/4 87/3/3 59/3/87
f 60/4/88 61/5/89 89/5/5
f 89/5/5 88/4/4 60/4/88
f 61/5/89 62/6/90 90/6/6
f 90/6/6 89/5/5 61/5/89
f 62/6/90 63/7/91 91/7/7
f 91/7/7 90/6/6 62/6/90
f 63/7/91 64/8/92 92/8/8
f 92/8/8 91/7/7 63/7/91
f 64/8/92 65/9/93 93/9/9
f 93/9/9 92/8/8 64/8/92
f 65/9/93 66/10/94 94/10/10
f 94/10/10 93/9/9 65/9/93
f 66/10/94 67/11/95 95/11/11
f 95/11/11 94/10/10 66/10/94
f 67/11/95 68/12/96 96/12/12
f 96/12/12 95/11/11 67/11/95
f 68/12/96 69/13/97 97/13/13
f 97/13/13 96/12/12 68/12/96
f 69/13/97 70/14/98 98/14/14
f 98/14/14 97/13/13 69/13/97
f 70/14/98 71/15/99 99/15/15
f 99/15/15 98/14/14 70/14/98
f 71/15/99 72/16/100 100/16/16
f 100/16/16 99/15/15 71/15/99
f 72/16/100 73/17/101 101/17/17
f 101/17/17 100/16/16 72/16/100
f 73/17/101 74/18/102 102/18/18
f 102/18/18 101/17/17 73/17/101
f 74/18/102 75/19/103 103/19/19
f 103/19/19 102/18/18 74/18/102
f 75/19/103 76/20/104 104/20/20
f 104/20/20 103/19/19 75/19/103
f 76/20/104 77/21/105 105/21/21
f 105/21/21 104/20/20 76/20/104
f 77/21/105 78/22/106 106/22/22
f 106/22/22 105/21/21 77/21/105
f 78/22/106 79/28/107 107/28/28
f 107/28/28 106/22/22 78/22/106
f 79/28/107 80/27/108 108/27/27
f 108/27/27 107/28/28 79/28/107
f 80/27/108 81/26/109 109/26/26
f 109/26/26 108/27/27 80/27/108
f 81/26/109 82/25/110 110/25/25
f 110/25/25 109/26/26 81/26/109
f 82/25/110 83/24/111 111/24/24
f 111/24/24 110/25/25 82/25/110
f 83/24/111 84/23/112 112/23/23
f 112/23/23 111/24/24 83/24/111
f 84/23/112 57/1/86 85/1/1
f 85/1/1 112/23/23 84/23/112
# 220 triangles in group

# 220 triangles total

